# xmcd
#
# Track frame offsets:
#	150
#	19304
#	32132
#	48246
#	64128
#	78540
#	95251
#	110024
#	123577
#	138677
#	156407
#	171903
#
# Disc length: 2530 seconds
#
# Revision: 1366025129
# Processed by: cddbd v1.5.2PL0 Copyright (c) Steve Scherf et al.
# Submitted via: EZCDAudioConverter 8.5.0.1
#
DISCID=aa09e00c
DTITLE=Rodney Atkins - Honesty
DYEAR=2003
DGENRE=Country
TTITLE0=Honesty (Write Me A List)
TTITLE1=What's Left Of Me
TTITLE2=Monkey In The Middle
TTITLE3=Someone To Share With
TTITLE4=The Love We Make
TTITLE5=The Man I Am Today
TTITLE6=Uncomplicated
TTITLE7=Sing Along
TTITLE8=Yeah She Does
TTITLE9=I Will Come To You
TTITLE10=Forgiveness And Permission
TTITLE11=My Old Man
EXTD=
EXTT0=
EXTT1=
EXTT2=
EXTT3=
EXTT4=
EXTT5=
EXTT6=
EXTT7=
EXTT8=
EXTT9=
EXTT10=
EXTT11=
PLAYORDER=
